# xmcd
#
# Track frame offsets:
#	183
#	14273
#	34563
#	45088
#	56353
#	74368
#	91725
#	101585
#	116735
#	136368
#	151980
#	167248
#	183278
#	198123
#	215100
#	231583
#
# Disc length: 3314
#
# Revision: 1
# Processed by: cddbd v1.5.1PL0 Copyright (c) Steve Scherf et al.
# Submitted via: dBpowerAMP V4.0
# Normalized: r0:TDELIM( - )
#
DISCID=d20cf010
DTITLE=Various Artists Country - Tombstone After Dark
DYEAR=1900
DGENRE=Country
TTITLE0=Jimmie Dale Gilmore - Honky Tonk Masquerade
TTITLE1=Gene Clark and Carla Olson - Gypsy Rider
TTITLE2=Percy Sledge - Hey Good Lookin'
TTITLE3=Larry "Jinx" Alexander - Shady Was A Lady From Louisville
TTITLE4=Butch Hancock - Fools Fall In Love
TTITLE5=David Halley - Further
TTITLE6=Junior Brown - My Baby Don't Dance To Nothing But Ernest Tubb
TTITLE7=Bobby Durham - Where I Grew Up
TTITLE8=Butch Hancock - West Texas Waltz
TTITLE9=Jimmie Dale Gilmore - Dallas
TTITLE10=Joe Ely - Me And Billy The Kid
TTITLE11=Dave Alvin - Border Radio
TTITLE12=Asleep At The Wheel - Big Beaver
TTITLE13=Nanci Griffith - Banks Of The Pontchartain
TTITLE14=David Halley - Opportunity Knockin'
TTITLE15=Junior Brown - Don't Sell The Farm
EXTD=5014757077135\nDemon Records\nwww.frodehoydal.com
EXTT0=
EXTT1=
EXTT2=
EXTT3=
EXTT4=
EXTT5=
EXTT6=
EXTT7=
EXTT8=
EXTT9=
EXTT10=
EXTT11=
EXTT12=
EXTT13=
EXTT14=
EXTT15=
PLAYORDER=
